<svg width="22" height="17" viewBox="0 0 22 17" fill="none" xmlns="http://www.w3.org/2000/svg">
<path d="M20.9141 7.96875L18.875 6.28125V2.90625C18.875 2.76562 18.7344 2.625 18.5938 2.625H17.4688C17.293 2.66016 17.1875 2.76562 17.1875 2.90625V4.91016L12.2305 0.832031C11.9492 0.585938 11.3867 0.410156 11 0.410156C10.5781 0.410156 10.0156 0.585938 9.73438 0.832031L1.05078 7.96875C0.945312 8.07422 0.875 8.25 0.875 8.39062C0.875 8.49609 0.910156 8.67188 0.980469 8.74219L1.36719 9.19922C1.4375 9.30469 1.64844 9.375 1.78906 9.375C1.89453 9.375 2.07031 9.33984 2.14062 9.26953L3.125 8.46094V15C3.125 15.6328 3.61719 16.125 4.25 16.125H8.75C9.34766 16.125 9.83984 15.6328 9.875 15V11.3438H12.125V15C12.125 15.6328 12.6172 16.125 13.25 16.125H17.75C18.3477 16.125 18.8398 15.6328 18.875 15.0352V8.46094L19.8242 9.26953C19.8945 9.33984 20.0703 9.41016 20.1758 9.41016C20.3164 9.41016 20.5273 9.30469 20.6328 9.19922L20.9844 8.74219C21.0547 8.67188 21.125 8.49609 21.125 8.39062C21.125 8.25 21.0195 8.07422 20.9141 7.96875ZM17.1523 14.4375H13.8125V10.7812C13.7773 10.1836 13.2852 9.69141 12.6875 9.65625H9.3125C8.67969 9.69141 8.1875 10.1836 8.1875 10.7812V14.4375H4.8125V7.08984L11 1.99219L17.1875 7.08984L17.1523 14.4375Z" fill="#333333"/>
</svg>
