<svg width="24" height="19" viewBox="0 0 24 19" fill="none" xmlns="http://www.w3.org/2000/svg">
<path d="M8.37891 17.0898C9.1875 17.0898 9.82031 16.9492 10.3828 16.8086C10.7695 16.7383 11.0156 16.3867 11.0156 16V14.875C11.3672 14.7344 11.6836 14.5586 11.9648 14.3477L12.9141 14.875C13.2305 15.0859 13.6875 15.0156 13.9336 14.7344C14.918 13.7148 15.6562 12.625 15.9375 11.1836C16.0078 10.8672 15.8672 10.5156 15.5508 10.3047L14.6367 9.74219C14.6719 9.35547 14.6719 9.00391 14.6367 8.65234L15.5508 8.05469C15.8672 7.87891 16.0078 7.52734 15.9375 7.17578C15.6562 5.69922 14.8477 4.64453 13.9336 3.66016C13.6875 3.37891 13.2305 3.30859 12.9141 3.48438L11.9648 4.04688C11.6836 3.83594 11.3672 3.66016 11.0156 3.48438V2.42969C11.0156 2.04297 10.7695 1.69141 10.3828 1.62109C8.80078 1.23438 7.92188 1.23438 6.33984 1.62109C5.98828 1.69141 5.70703 2.04297 5.70703 2.42969V3.48438C5.39062 3.625 5.07422 3.83594 4.75781 4.04688L3.80859 3.48438C3.49219 3.30859 3.07031 3.34375 2.78906 3.66016C1.55859 4.96094 1.24219 5.69922 0.785156 7.10547C0.644531 7.49219 0.820312 7.91406 1.17188 8.08984L2.12109 8.65234C2.08594 9.00391 2.08594 9.35547 2.12109 9.74219L1.17188 10.2695C0.820312 10.4453 0.644531 10.8672 0.785156 11.2539C1.24219 12.6602 1.55859 13.3984 2.78906 14.7344C3.07031 15.0156 3.49219 15.0508 3.80859 14.875L4.75781 14.3125C5.07422 14.5234 5.39062 14.7344 5.70703 14.875V16C5.70703 16.3867 5.98828 16.7031 6.33984 16.8086C6.90234 16.9492 7.53516 17.0898 8.37891 17.0898ZM7.39453 15.2969V13.7148L6.83203 13.5039C6.30469 13.3281 5.8125 13.0469 5.39062 12.6953L4.93359 12.3086L3.5625 13.082C3.14062 12.5898 2.82422 11.9922 2.57812 11.3945L3.94922 10.6211L3.84375 10.0234C3.73828 9.46094 3.73828 8.89844 3.84375 8.33594L3.94922 7.77344L2.57812 6.96484C2.82422 6.36719 3.14062 5.80469 3.5625 5.27734L4.93359 6.08594L5.39062 5.69922C5.8125 5.3125 6.30469 5.03125 6.83203 4.85547L7.39453 4.64453V3.0625C8.02734 2.99219 8.69531 2.99219 9.32812 3.0625V4.64453L9.89062 4.85547C10.418 5.03125 10.9102 5.3125 11.332 5.69922L11.7891 6.08594L13.1602 5.27734C13.582 5.80469 13.8984 6.36719 14.1445 6.96484L12.7734 7.73828L12.8789 8.33594C12.9844 8.89844 12.9844 9.46094 12.8789 10.0234L12.7734 10.6211L14.1445 11.3945C13.8984 11.9922 13.582 12.5547 13.1602 13.082L11.7891 12.2734L11.332 12.6602C10.9102 13.0469 10.418 13.3281 9.89062 13.5039L9.32812 13.7148V15.2969C8.69531 15.4023 8.02734 15.4023 7.39453 15.2969ZM8.34375 12.3086C9.15234 12.3086 9.92578 11.9922 10.5586 11.3945C11.7539 10.1992 11.7539 8.23047 10.5586 7C9.32812 5.80469 7.35938 5.80469 6.16406 7C4.93359 8.23047 4.93359 10.1992 6.16406 11.3945C6.76172 11.9922 7.57031 12.3086 8.34375 12.3086ZM8.34375 7.77344C8.69531 7.77344 9.08203 7.91406 9.36328 8.19531C9.89062 8.75781 9.89062 9.63672 9.36328 10.1992C8.80078 10.7617 7.88672 10.7617 7.35938 10.1992C6.79688 9.63672 6.79688 8.75781 7.35938 8.19531C7.64062 7.91406 7.99219 7.77344 8.34375 7.77344ZM23.1797 3.23828C23.1445 3.0625 22.9688 2.88672 22.7578 2.88672H22.1953C22.0898 2.57031 21.8789 2.21875 21.668 1.97266L21.9492 1.48047C22.0195 1.30469 21.9844 1.05859 21.8438 0.917969C21.5273 0.671875 21.1406 0.460938 20.7539 0.285156C20.543 0.214844 20.332 0.285156 20.2266 0.496094L19.9453 0.953125C19.5938 0.917969 19.207 0.917969 18.8555 0.953125L18.5742 0.496094C18.4688 0.285156 18.2578 0.214844 18.0469 0.285156C17.6602 0.460938 17.2734 0.671875 16.957 0.917969C16.7812 1.05859 16.7461 1.30469 16.8516 1.48047L17.1328 1.97266C16.8867 2.21875 16.7109 2.57031 16.6055 2.88672H16.043C15.832 2.88672 15.6562 3.0625 15.6211 3.27344C15.5508 3.69531 15.5508 4.11719 15.6211 4.53906C15.6562 4.75 15.832 4.89062 16.043 4.89062H16.6055C16.7109 5.24219 16.8867 5.55859 17.1328 5.83984L16.8516 6.33203C16.7461 6.50781 16.7812 6.71875 16.957 6.85938C17.2734 7.14062 17.6602 7.35156 18.0469 7.49219C18.2578 7.5625 18.4688 7.49219 18.5742 7.31641L18.8555 6.82422C19.207 6.89453 19.5938 6.89453 19.9453 6.82422L20.2266 7.31641C20.332 7.49219 20.543 7.5625 20.7539 7.49219C21.1406 7.35156 21.5273 7.14062 21.8438 6.85938C21.9844 6.71875 22.0547 6.50781 21.9492 6.33203L21.668 5.83984C21.8789 5.55859 22.0898 5.24219 22.1953 4.89062H22.7578C22.9688 4.89062 23.1445 4.75 23.1797 4.53906C23.25 4.08203 23.25 3.66016 23.1797 3.23828ZM19.3828 5.03125C18.7852 5.03125 18.2578 4.50391 18.2578 3.90625C18.2578 3.27344 18.7852 2.78125 19.3828 2.78125C20.0156 2.78125 20.5078 3.27344 20.5078 3.90625C20.5078 4.50391 20.0156 5.03125 19.3828 5.03125ZM23.1797 13.9961C23.1445 13.7852 22.9688 13.6445 22.7578 13.6445H22.1953C22.0898 13.293 21.8789 12.9766 21.668 12.6953L21.9492 12.2031C22.0195 12.0273 21.9844 11.8164 21.8438 11.6758C21.5273 11.3945 21.1406 11.1836 20.7188 11.043C20.543 10.9727 20.332 11.043 20.2266 11.2188L19.9453 11.7109C19.5938 11.6406 19.207 11.6406 18.8555 11.7109L18.5742 11.2188C18.4688 11.043 18.2578 10.9727 18.0469 11.043C17.6602 11.1836 17.2734 11.3945 16.957 11.6758C16.7812 11.8164 16.7461 12.0273 16.8516 12.2031L17.1328 12.6953C16.8867 12.9766 16.7109 13.293 16.6055 13.6445H16.0078C15.832 13.6445 15.6211 13.7852 15.6211 13.9961C15.5508 14.418 15.5508 14.875 15.6211 15.2617C15.6562 15.4727 15.832 15.6133 16.0078 15.6133H16.6055C16.7109 15.9648 16.8867 16.2812 17.1328 16.5625L16.8516 17.0547C16.7461 17.2305 16.7812 17.4766 16.957 17.582C17.2734 17.8633 17.6602 18.0742 18.0469 18.25C18.2578 18.3203 18.4688 18.25 18.5742 18.0391L18.8555 17.5469C19.207 17.6172 19.5938 17.6172 19.9453 17.5469L20.2266 18.0391C20.332 18.2148 20.543 18.3203 20.7188 18.25C21.1406 18.0742 21.5273 17.8633 21.8438 17.582C21.9844 17.4766 22.0547 17.2305 21.9492 17.0547L21.668 16.5625C21.8789 16.2812 22.0898 15.9648 22.1953 15.6133H22.7578C22.9688 15.6133 23.1445 15.4727 23.1797 15.2617C23.25 14.8398 23.25 14.418 23.1797 13.9961ZM19.3828 15.7539C18.7852 15.7539 18.2578 15.2617 18.2578 14.6289C18.2578 14.0312 18.7852 13.5039 19.3828 13.5039C20.0156 13.5039 20.5078 14.0312 20.5078 14.6289C20.5078 15.2617 20.0156 15.7539 19.3828 15.7539Z" fill="#333333"/>
</svg>
