<svg width="13" height="12" viewBox="0 0 13 12" fill="none" xmlns="http://www.w3.org/2000/svg">
<path d="M8.27734 6.25L12.0742 2.48828C12.2852 2.27734 12.2852 1.89062 12.0742 1.67969L11.1953 0.800781C10.9844 0.589844 10.5977 0.589844 10.3867 0.800781L6.625 4.59766L2.82812 0.800781C2.61719 0.589844 2.23047 0.589844 2.01953 0.800781L1.14062 1.67969C0.929688 1.89062 0.929688 2.27734 1.14062 2.48828L4.9375 6.25L1.14062 10.0469C0.929688 10.2578 0.929688 10.6445 1.14062 10.8555L2.01953 11.7344C2.23047 11.9453 2.61719 11.9453 2.82812 11.7344L6.625 7.9375L10.3867 11.7344C10.5977 11.9453 10.9844 11.9453 11.1953 11.7344L12.0742 10.8555C12.2852 10.6445 12.2852 10.2578 12.0742 10.0469L8.27734 6.25Z" fill="#747474"/>
</svg>
