<svg width="21" height="19" viewBox="0 0 21 19" fill="none" xmlns="http://www.w3.org/2000/svg">
<path d="M18.5625 10.375H15.293L16.9453 8.75781C18 7.70312 17.2266 5.875 15.75 5.875H13.5V1.9375C13.5 1.02344 12.7266 0.25 11.8125 0.25H8.4375C7.48828 0.25 6.75 1.02344 6.75 1.9375V5.875H4.5C2.98828 5.875 2.21484 7.70312 3.30469 8.75781L4.92188 10.375H1.6875C0.738281 10.375 0 11.1484 0 12.0625V16.5625C0 17.5117 0.738281 18.25 1.6875 18.25H18.5625C19.4766 18.25 20.25 17.5117 20.25 16.5625V12.0625C20.25 11.1484 19.4766 10.375 18.5625 10.375ZM4.5 7.5625H8.4375V1.9375H11.8125V7.5625H15.75L10.125 13.1875L4.5 7.5625ZM18.5625 16.5625H1.6875V12.0625H6.60938L8.92969 14.3828C9.5625 15.0508 10.6523 15.0508 11.2852 14.3828L13.6055 12.0625H18.5625V16.5625ZM15.4688 14.3125C15.4688 14.8047 15.8203 15.1562 16.3125 15.1562C16.7695 15.1562 17.1562 14.8047 17.1562 14.3125C17.1562 13.8555 16.7695 13.4688 16.3125 13.4688C15.8203 13.4688 15.4688 13.8555 15.4688 14.3125Z" fill="#747474"/>
</svg>
