<svg width="19" height="19" viewBox="0 0 19 19" fill="none" xmlns="http://www.w3.org/2000/svg">
<path d="M12.0391 7.21094C11.6523 6.82422 11.2305 6.54297 10.7734 6.29688C10.5977 6.22656 10.4219 6.26172 10.2812 6.40234L10.1406 6.54297C9.82422 6.82422 9.64844 7.21094 9.61328 7.59766C9.57812 7.77344 9.68359 7.94922 9.82422 8.05469C10.0703 8.16016 10.457 8.40625 10.6328 8.61719C11.793 9.77734 11.793 11.6406 10.6328 12.8008L7.99609 15.4375C6.83594 16.5977 4.97266 16.5977 3.8125 15.4375C2.65234 14.2773 2.65234 12.4141 3.8125 11.2539L5.42969 9.63672C5.53516 9.53125 5.57031 9.39062 5.53516 9.25C5.46484 8.89844 5.39453 8.30078 5.35938 7.91406C5.35938 7.5625 4.90234 7.38672 4.65625 7.63281C4.23438 8.05469 3.56641 8.72266 2.44141 9.84766C0.507812 11.7812 0.507812 14.9102 2.44141 16.8086C4.33984 18.7422 7.46875 18.7422 9.40234 16.8086C12.2852 13.9258 12.1445 14.0664 12.3555 13.7852C13.9375 11.8867 13.832 9.00391 12.0391 7.21094ZM17.5234 1.72656C15.625 -0.207031 12.4961 -0.207031 10.5625 1.72656C7.67969 4.60938 7.82031 4.46875 7.60938 4.75C6.02734 6.64844 6.13281 9.53125 7.92578 11.3242C8.3125 11.7109 8.73438 11.9922 9.19141 12.2383C9.36719 12.3086 9.54297 12.2734 9.68359 12.1328L9.82422 11.9922C10.1406 11.7109 10.3164 11.3242 10.3516 10.9375C10.3867 10.7617 10.2812 10.5859 10.1406 10.4805C9.89453 10.375 9.50781 10.1289 9.33203 9.91797C8.17188 8.75781 8.17188 6.89453 9.33203 5.73438L11.9688 3.09766C13.1289 1.9375 14.9922 1.9375 16.1523 3.09766C17.3125 4.25781 17.3125 6.12109 16.1523 7.28125L14.5352 8.89844C14.4297 9.00391 14.3945 9.14453 14.4297 9.28516C14.5 9.63672 14.5703 10.2344 14.6055 10.6211C14.6055 10.9727 15.0625 11.1484 15.3086 10.9023C15.7305 10.4805 16.3984 9.8125 17.5234 8.6875C19.457 6.75391 19.457 3.625 17.5234 1.72656Z" fill="#747474"/>
</svg>
