<svg width="18" height="19" viewBox="0 0 18 19" fill="none" xmlns="http://www.w3.org/2000/svg">
<path d="M12.6562 14.7695C12.832 14.5938 12.832 14.3125 12.6562 14.1719L11.9531 13.4688C11.8125 13.293 11.5312 13.293 11.3555 13.4688L9.91406 15.0508H9.84375V10.0938H14.7656V10.1641L13.1836 11.6406C13.0078 11.8164 13.0078 12.0977 13.1836 12.2383L13.8867 12.9414C14.0273 13.1172 14.3086 13.1172 14.4844 12.9414L17.8594 9.56641C18.0352 9.39062 18.0352 9.14453 17.8594 8.96875L14.4844 5.59375C14.3086 5.41797 14.0273 5.41797 13.8867 5.59375L13.1836 6.29688C13.0078 6.4375 13.0078 6.71875 13.1836 6.89453L14.7656 8.33594V8.40625H9.84375V3.48438H9.91406L11.3555 5.06641C11.5312 5.24219 11.8125 5.24219 11.9531 5.06641L12.6562 4.36328C12.832 4.22266 12.832 3.94141 12.6562 3.76562L9.28125 0.390625C9.10547 0.214844 8.85938 0.214844 8.68359 0.390625L5.30859 3.76562C5.13281 3.94141 5.13281 4.22266 5.30859 4.36328L6.01172 5.06641C6.15234 5.24219 6.43359 5.24219 6.60938 5.06641L8.08594 3.48438H8.15625V8.40625H3.19922V8.33594L4.78125 6.89453C4.95703 6.71875 4.95703 6.4375 4.78125 6.29688L4.07812 5.59375C3.9375 5.41797 3.65625 5.41797 3.48047 5.59375L0.105469 8.96875C-0.0703125 9.14453 -0.0703125 9.39062 0.105469 9.56641L3.48047 12.9414C3.65625 13.1172 3.9375 13.1172 4.07812 12.9414L4.78125 12.2383C4.95703 12.0977 4.95703 11.8164 4.78125 11.6406L3.19922 10.1641V10.0938H8.15625V15.0508H8.08594L6.60938 13.4688C6.43359 13.293 6.15234 13.293 6.01172 13.4688L5.30859 14.1719C5.13281 14.3125 5.13281 14.5938 5.30859 14.7695L8.68359 18.1445C8.85938 18.3203 9.10547 18.3203 9.28125 18.1445L12.6562 14.7695Z" fill="#747474"/>
</svg>
